<svg width="94" height="94" viewBox="0 0 94 94" fill="none" xmlns="http://www.w3.org/2000/svg">
<path d="M76.2145 94.0018C73.8746 93.3248 72.0424 91.8777 70.4212 90.1363C69.9822 89.6654 69.5309 89.5035 68.9054 89.5035C58.4104 89.5183 47.9178 89.5158 37.4227 89.5109C36.9665 89.5109 36.4981 89.5109 36.0541 89.4177C35.1981 89.2411 34.6684 88.4857 34.7027 87.5953C34.7371 86.7222 35.3502 86.0256 36.2234 85.9128C36.5864 85.8662 36.9567 85.876 37.3222 85.876C46.7454 85.876 56.1686 85.876 65.5919 85.876H66.7471C66.6882 85.3683 66.3645 85.0691 66.1339 84.7331C62.2121 79.0404 60.2867 72.7492 60.4535 65.8277C60.4927 64.1476 60.9759 63.5737 62.6364 63.3701C63.8848 63.2156 65.0866 62.9017 66.3596 62.3719C63.8921 59.8088 61.128 57.8295 57.8782 56.2868C57.861 57.5916 57.8316 58.7714 57.6035 59.9339C56.9094 63.4756 55.0085 66.3649 52.676 69.0089C51.8838 69.9066 50.8267 69.8379 49.8603 68.9059C46.7356 65.8866 43.606 62.8747 40.5229 59.8113C39.9171 59.2079 39.6105 59.2717 39.044 59.8358C36.0468 62.8109 33.0104 65.7419 29.9813 68.6851C28.6004 70.0267 27.6831 69.9654 26.469 68.5036C24.3131 65.9087 22.5496 63.1151 21.9561 59.7205C21.7672 58.6365 21.7059 57.5401 21.701 56.4266C21.2326 56.38 20.9186 56.6596 20.5826 56.8386C13.9947 60.3141 9.54303 65.7051 6.6366 72.4623C5.3146 75.5306 4.34333 78.7117 3.79884 82.013C3.33773 84.8238 3.87733 85.6062 6.73716 85.7828C10.7375 86.0305 14.7501 85.8319 18.7578 85.8785C19.2164 85.8834 19.6775 85.8637 20.1337 85.9005C21.0952 85.979 21.7967 86.7099 21.8285 87.6321C21.8604 88.5372 21.1958 89.3098 20.2417 89.4692C20.092 89.4937 19.9375 89.5133 19.7855 89.5109C15.3191 89.4717 10.8528 89.6139 6.38643 89.4275C5.99154 89.4103 5.59421 89.3564 5.20423 89.2828C1.46388 88.5838 -0.500728 86.2832 0.109992 82.533C2.49646 67.861 9.45719 56.6253 24.1365 51.3912C24.2518 51.3495 24.3646 51.3029 24.475 51.2514C24.5241 51.2269 24.5633 51.1778 24.6663 51.0895C23.7613 50.1011 22.8513 49.1176 22.0468 48.0433C18.8608 43.7781 16.8986 39.1057 17.2445 33.6681C17.2911 32.9568 17.0801 32.5448 16.4351 32.1376C12.4544 29.631 12.6874 23.953 16.8447 21.7382C17.3058 21.4929 17.4922 21.2084 17.5756 20.7179C19.1895 11.3535 24.5363 5.19238 33.545 2.205C33.8933 2.08973 34.0945 1.91313 34.2588 1.57957C34.7984 0.478311 35.7255 -0.00486842 36.9371 3.69587e-05C38.9876 0.00984771 41.038 0.00739502 43.086 3.69587e-05C44.381 -0.00486842 45.34 0.539628 45.8306 1.74635C45.9998 2.16331 46.2941 2.25896 46.6375 2.37914C54.7951 5.24634 59.8722 10.8875 61.7681 19.3272C62.0526 20.6002 62.396 21.515 63.6076 22.3465C67.0929 24.7428 66.7127 30.0038 63.0484 32.2259C62.6241 32.4834 62.3494 32.7091 62.3813 33.2683C62.7835 40.1873 59.8771 45.7672 55.3126 50.6726C55.19 50.805 55.0723 50.9399 54.8957 51.141C55.7762 51.4746 56.593 51.7714 57.4023 52.0902C61.9349 53.8856 65.896 56.5345 69.2194 60.1032C69.6879 60.6084 69.9994 60.6575 70.5733 60.2749C72.3073 59.1123 73.9384 57.832 75.41 56.3505C76.6093 55.1438 77.4751 55.1536 78.6892 56.3505C82.0592 59.6739 85.8903 62.2027 90.5872 63.2352C90.7074 63.2622 90.8251 63.3039 90.9453 63.3113C93.5599 63.4486 93.6335 64.545 93.6531 66.5022C93.7316 74.834 90.5602 81.9076 85.3777 88.2232C84.8921 88.8143 84.3844 89.3883 83.8644 89.945C82.177 91.7527 80.3105 93.3003 77.8676 93.9944H76.2145V94.0018ZM39.8828 33.0721C35.8457 33.0721 31.8085 33.0721 27.7714 33.0721C25.7234 33.0721 23.673 33.077 21.625 33.0672C21.1859 33.0672 20.8499 33.0819 20.8622 33.6754C20.8916 34.9582 20.7543 36.2606 21.0682 37.5139C23.0721 45.5268 28.1246 50.8663 35.6642 53.9592C37.5282 54.7244 39.5002 54.9697 41.5114 54.5993C45.6932 53.8267 49.1417 51.6806 52.0898 48.7325C56.122 44.6978 58.9426 40.0721 58.7783 34.0777C58.7538 33.1825 58.4644 33.05 57.682 33.0549C51.7489 33.0819 45.8158 33.0696 39.8828 33.0696V33.0721ZM89.952 67.8267C89.8588 67.498 90.288 66.9045 89.4443 66.7132C84.8921 65.683 81.0217 63.3554 77.5634 60.2969C77.1538 59.9364 76.9429 59.9388 76.5358 60.2969C73.075 63.353 69.1973 65.6659 64.6525 66.7156C64.1129 66.8407 64.1055 67.1399 64.1203 67.5691C64.4146 76.3988 68.4664 83.3865 74.8066 89.2092C76.5358 90.7961 77.4751 90.7029 79.3098 89.2239C81.3038 87.615 82.8833 85.6283 84.3647 83.5631C87.7127 78.8883 89.8023 73.7548 89.952 67.8291V67.8267ZM39.7724 29.4372C46.2279 29.4372 52.6834 29.4372 59.1388 29.4372C59.5067 29.4372 59.8747 29.4397 60.2376 29.4004C61.6259 29.2483 62.526 28.0563 62.3077 26.6779C62.1189 25.4835 61.2212 24.6839 59.8305 24.6814C46.4633 24.6643 33.0962 24.6716 19.729 24.6765C19.5181 24.6765 19.3023 24.7207 19.0938 24.7648C18.0195 25.0003 17.2862 25.8931 17.2592 26.987C17.2224 28.4929 18.2623 29.4323 20.0381 29.4347C26.6162 29.4446 33.1943 29.4372 39.7724 29.4397V29.4372ZM33.9669 5.94535C28.2325 7.65488 22.6404 13.1342 21.3209 20.3132C21.2178 20.8749 21.3674 21.0686 21.9585 21.0637C24.9827 21.0416 28.0093 21.0392 31.0335 21.0662C31.5976 21.0711 31.7546 20.7792 31.914 20.3475C33.6088 15.712 33.935 10.8851 33.9669 5.94535ZM46.0979 6.05082C46.0439 11.0592 46.4683 15.8959 48.1925 20.5511C48.3544 20.9901 48.6242 21.0588 49.0289 21.0564C51.9034 21.0466 54.778 21.0343 57.6525 21.0637C58.3074 21.0711 58.3883 20.8822 58.2706 20.2691C57.5618 16.5949 55.9136 13.4113 53.3333 10.7158C51.3197 8.61143 48.943 7.05642 46.0954 6.04837L46.0979 6.05082ZM39.9858 21.0539C41.2097 21.0539 42.4336 21.0245 43.655 21.0662C44.3173 21.0883 44.5086 20.9558 44.2682 20.2617C43.6379 18.4393 43.2405 16.5581 42.9683 14.6475C42.4998 11.3682 42.3845 8.06693 42.4409 4.76316C42.4557 3.91453 42.2913 3.54417 41.3593 3.63983C40.4812 3.73058 39.5811 3.72812 38.7031 3.63983C37.7833 3.54662 37.6141 3.89491 37.6116 4.75089C37.5969 10.0487 37.4325 15.3342 35.7181 20.4285C35.5366 20.9681 35.7574 21.0613 36.2258 21.0564C37.4791 21.0416 38.7349 21.0515 39.9883 21.0515L39.9858 21.0539ZM35.7942 57.8516C33.523 57.1796 31.3401 56.3383 29.4932 54.928C28.3478 54.0524 27.3275 54.0794 26.1306 54.5527C25.7504 54.7023 25.5714 54.8789 25.5027 55.3131C24.9631 58.8229 26.0423 61.8666 28.0805 64.6652C28.4312 65.1459 28.6249 64.9301 28.9168 64.6455C30.4424 63.1494 31.9827 61.668 33.5082 60.1718C34.2661 59.4287 34.9995 58.661 35.7942 57.854V57.8516ZM44.3222 57.6946C46.4094 59.9683 48.5825 62.3327 50.7482 64.7044C51.0499 65.0331 51.2363 65.0306 51.5159 64.6553C53.4903 62.0015 54.5033 59.0681 54.155 55.7325C54.0446 54.6631 52.0628 53.655 51.1652 54.2756C48.9136 55.8379 46.5001 57.052 44.3222 57.6946Z" fill="#2196F3"/>
<path d="M26.4493 87.6689C26.4567 86.6535 27.2489 85.8833 28.2717 85.8932C29.2773 85.903 30.0916 86.7173 30.0793 87.7057C30.0671 88.6966 29.238 89.5011 28.2398 89.4937C27.2342 89.4839 26.4444 88.6794 26.4518 87.6714L26.4493 87.6689Z" fill="#2196F3"/>
<path d="M76.3028 80.5906C75.854 80.598 75.464 80.4312 75.1181 80.1687C74.1199 79.4133 73.1143 78.6652 72.1406 77.8828C71.2748 77.1863 71.1227 76.085 71.7359 75.2879C72.3662 74.4662 73.3865 74.3632 74.348 74.9911C74.9465 75.3811 75.4591 76.2788 76.1188 76.0899C76.7222 75.9158 77.1441 75.1015 77.6371 74.5619C78.6451 73.4557 79.6434 72.3422 80.6563 71.241C81.581 70.2354 82.6234 70.1029 83.4597 70.8706C84.2667 71.6113 84.2618 72.666 83.3935 73.6348C81.5393 75.7049 79.6654 77.7553 77.8014 79.818C77.3967 80.2669 76.9209 80.5661 76.3028 80.5931V80.5906Z" fill="#2196F3"/>
</svg>
