<svg  width="84" height="105" viewBox="0 0 84 105" fill="none" xmlns="http://www.w3.org/2000/svg">
<path d="M43.2447 0C44.4649 0.393072 45.7315 0.641463 46.8643 1.28839C47.9398 1.90257 48.8869 2.66142 49.7168 3.57859C51.7176 5.78416 54.177 6.54847 57.1005 5.97524C63.4743 4.72778 69.0373 8.73765 69.8426 15.1606C70.222 18.1823 71.7397 20.3169 74.5185 21.6026C80.3382 24.2995 82.4891 30.8725 79.3719 36.4629C77.8815 39.1352 77.8624 41.7311 79.3527 44.4062C82.4782 50.0184 80.3736 56.5341 74.554 59.2856C72.4767 60.2683 70.9918 61.7314 70.2247 63.9151C69.9927 64.5729 70.0555 65.108 70.4431 65.7221C74.5021 72.1341 78.5175 78.5707 82.5683 84.9854C83.6165 86.6477 83.9932 88.3729 83.2453 90.2263C82.47 92.1453 81.0124 93.2808 78.9597 93.5811C76.503 93.9414 74.0408 94.2826 71.5759 94.5802C70.6206 94.6948 69.9217 95.0988 69.4031 95.9013C68.1256 97.8721 66.8318 99.832 65.5352 101.789C62.9829 105.641 58.4135 105.589 55.9431 101.666C51.7558 95.0169 47.5849 88.3538 43.4058 81.6989C42.6579 80.506 40.9764 80.5087 40.2257 81.6989C36.0466 88.3565 31.8729 95.0142 27.6911 101.669C26.1679 104.093 23.946 105.065 21.4647 104.418C20.0781 104.055 19.0435 103.222 18.2656 102.04C16.9581 100.05 15.6287 98.0714 14.3485 96.0651C13.7725 95.1643 13.0301 94.6839 11.9546 94.5583C9.62346 94.2881 7.30051 93.9496 4.97484 93.6166C0.596453 92.9888 -1.33343 88.8479 1.01955 85.0809C5.02123 78.6744 9.03111 72.2733 13.0847 65.9023C13.5869 65.1107 13.6197 64.4583 13.2976 63.6312C12.4814 61.5403 10.991 60.1755 8.98198 59.2474C5.88381 57.817 3.93483 55.3958 3.12412 52.0847C2.49084 49.4916 2.80202 46.983 4.13409 44.6846C5.79373 41.8157 5.73368 39.0833 4.12045 36.1899C1.18879 30.9353 3.36434 24.2585 8.83185 21.7391C11.8891 20.3305 13.475 18.0758 13.8353 14.7566C14.4495 9.07341 20.1572 4.86152 25.8158 5.87423C27.8412 6.23727 29.7984 6.34919 31.6819 5.34467C32.4735 4.9243 33.1805 4.40021 33.7701 3.72872C35.4734 1.79338 37.5698 0.567767 40.1275 0.150128C40.2175 0.13648 40.2967 0.0518636 40.384 0C41.3367 0 42.2921 0 43.2447 0ZM24.2517 8.74311C20.5066 8.77313 17.3266 11.4946 16.8789 15.237C16.3603 19.5499 14.2257 22.6016 10.2649 24.4633C6.15678 26.3959 4.71006 30.8998 6.89925 34.8715C8.9656 38.622 8.97107 42.2798 6.90198 46.0303C4.71279 49.9993 6.14586 54.4978 10.2595 56.4413C14.2147 58.3111 16.3548 61.3465 16.8816 65.6621C17.4003 69.9258 21.3228 72.7374 25.5538 71.9731C27.1397 71.6865 28.7202 71.5199 30.317 71.8339C32.8311 72.3279 34.75 73.7828 36.4997 75.568C39.5078 78.6362 44.2684 78.6635 47.1563 75.5298C50.1808 72.2488 53.7594 71.0941 58.116 71.9649C61.9293 72.7265 65.5707 70.3762 66.567 66.6257C66.7936 65.7767 66.829 64.8759 67.031 64.0188C67.8499 60.5467 69.8972 58.0845 73.14 56.5778C76.563 54.9864 78.2309 51.8145 77.5812 48.2714C77.4256 47.4252 77.1035 46.6418 76.6831 45.8993C74.6386 42.277 74.6605 38.6712 76.664 35.0243C78.886 30.9817 77.4938 26.3849 73.4266 24.4905C69.4277 22.6289 67.2631 19.5662 66.7444 15.2015C66.2449 11.006 62.2514 8.10983 58.1378 8.93146C53.8331 9.7913 50.2027 8.73766 47.2492 5.44569C46.2446 4.32652 44.9863 3.59224 43.515 3.2756C40.6379 2.65323 38.2031 3.47212 36.2159 5.62037C33.448 8.60935 30.0741 9.74764 26.0642 9.01063C25.4637 8.90144 24.855 8.83046 24.2517 8.74311ZM14.7197 69.2844C14.6215 69.3335 14.5368 69.3471 14.5068 69.3963C10.7945 75.2978 7.06303 81.1884 3.39436 87.12C2.50176 88.5612 3.35341 90.2536 5.03216 90.5239C7.04665 90.846 9.06933 91.1872 11.1002 91.3237C13.9445 91.5147 16.0627 92.6476 17.4712 95.208C18.4375 96.9604 19.6413 98.5846 20.7578 100.252C21.937 102.016 23.8368 102.024 24.9642 100.233C29.0696 93.734 33.1422 87.2128 37.2449 80.7107C37.5479 80.2303 37.5534 79.9846 36.9938 79.7199C35.8119 79.1603 34.8155 78.3359 33.9448 77.3642C31.9576 75.1449 29.5172 74.3533 26.5856 74.9184C22.0789 75.7891 18.4102 74.3834 15.6287 70.7174C15.2875 70.267 15.02 69.7621 14.7197 69.2844ZM68.9746 69.1834C66.0948 74.4434 61.124 75.7973 57.1988 74.9511C54.1498 74.2933 51.6385 75.2023 49.5721 77.4815C48.7641 78.3714 47.8497 79.1466 46.7606 79.6516C46.0563 79.9792 46.1 80.2576 46.4712 80.8445C50.522 87.2537 54.5428 93.6848 58.58 100.105C59.8083 102.059 61.6754 102.062 62.9584 100.124C64.2932 98.1123 65.6198 96.0924 66.941 94.0724C67.94 92.5438 69.3649 91.7522 71.161 91.5338C73.4239 91.2581 75.6841 90.9715 77.9361 90.6385C80.5347 90.2536 81.2471 88.6786 79.8523 86.4539C76.4211 80.9782 72.9872 75.5053 69.5505 70.035C69.3922 69.7812 69.2148 69.5382 68.9718 69.1834H68.9746Z" fill="#2196F3"/>
<path d="M67.9647 40.4512C67.9647 54.8311 56.2435 66.5796 41.8663 66.6014C27.4428 66.626 15.6615 54.8666 15.667 40.4485C15.6725 26.0195 27.44 14.2765 41.869 14.3038C56.2544 14.3311 67.9646 26.0632 67.9674 40.4512H67.9647ZM18.7297 40.4212C18.7133 53.1251 29.0615 63.5142 41.7571 63.5387C54.4692 63.5633 64.8637 53.2288 64.8992 40.5359C64.9347 27.7747 54.5702 17.3746 41.8199 17.3719C29.1106 17.3719 18.7461 27.7173 18.7297 40.4239V40.4212Z" fill="#2196F3"/>
<path d="M27.7047 31.3368C27.7211 27.5371 30.0795 24.5454 33.4043 24.024C35.2768 23.7319 36.9037 24.3352 38.2822 25.5854C41.3148 28.3396 41.5469 33.4495 38.7653 36.4631C37.1139 38.2537 35.0721 39.0371 32.6809 38.3656C30.0905 37.6368 28.6246 35.7588 27.934 33.2257C27.7539 32.5678 27.6692 31.8909 27.7047 31.3368ZM37.6626 31.3559C37.608 30.3514 37.4251 29.4669 36.9173 28.6671C35.5552 26.5189 32.9621 26.467 31.5508 28.5716C30.792 29.7017 30.6009 30.9655 30.8575 32.2785C31.2315 34.2084 32.6727 35.5623 34.2477 35.5323C35.8692 35.5022 37.2531 34.0664 37.567 32.0874C37.6107 31.8199 37.638 31.5497 37.6653 31.3559H37.6626Z" fill="#2196F3"/>
<path d="M55.9377 49.3825C55.894 51.7246 55.2471 53.5098 53.8495 54.9865C51.2318 57.7544 47.0308 57.5851 44.6424 54.5716C42.7534 52.1886 42.4313 49.4999 43.4822 46.6801C44.5113 43.9177 47.099 42.1653 49.7495 42.3209C52.501 42.4846 54.9359 44.6411 55.6757 47.5837C55.8504 48.277 55.9677 48.984 55.9377 49.3825ZM52.8586 49.822C52.8641 47.3325 51.371 45.4299 49.4984 45.3781C47.6641 45.3262 46.1218 47.0923 45.9799 49.4071C45.9799 49.4398 45.9772 49.4753 45.9744 49.5081C45.898 51.7136 47.3092 53.6544 49.149 53.8783C50.825 54.0803 52.471 52.5516 52.8095 50.4662C52.8532 50.1987 52.8504 49.9257 52.8586 49.8193V49.822Z" fill="#2196F3"/>
<path d="M36.3633 55.1283C35.225 55.1283 34.5535 54.031 35.0312 52.849C35.9101 50.6735 36.83 48.5171 37.7363 46.3552C40.4687 39.8367 43.2065 33.3183 45.9389 26.7999C46.0181 26.6115 46.0918 26.4204 46.1819 26.2375C46.6377 25.3176 47.4512 24.9792 48.2755 25.3586C49.0344 25.708 49.351 26.5405 48.988 27.4304C48.049 29.7261 47.0772 32.0108 46.1191 34.2982C43.3976 40.7839 40.6707 47.2696 37.9601 53.7608C37.6489 54.506 37.234 55.0628 36.366 55.1283H36.3633Z" fill="#2196F3"/>
</svg>
