<svg width="84" height="105" viewBox="0 0 84 105" fill="none" xmlns="http://www.w3.org/2000/svg">
<path d="M49.3383 3.91454L49.3378 3.91404C48.5439 3.03651 47.6382 2.31084 46.6081 1.72258C45.8321 1.27943 45.0121 1.04338 44.1275 0.788781C43.813 0.698248 43.4903 0.605369 43.1586 0.5H43.1584H43.1528H43.1472H43.1417H43.1361H43.1305H43.1249H43.1193H43.1137H43.1082H43.1026H43.097H43.0914H43.0858H43.0802H43.0747H43.0691H43.0635H43.0579H43.0523H43.0467H43.0412H43.0356H43.03H43.0244H43.0188H43.0132H43.0077H43.0021H42.9965H42.9909H42.9853H42.9797H42.9741H42.9686H42.963H42.9574H42.9518H42.9462H42.9406H42.9351H42.9295H42.9239H42.9183H42.9127H42.9071H42.9015H42.896H42.8904H42.8848H42.8792H42.8736H42.868H42.8624H42.8569H42.8513H42.8457H42.8401H42.8345H42.8289H42.8233H42.8178H42.8122H42.8066H42.801H42.7954H42.7898H42.7842H42.7787H42.7731H42.7675H42.7619H42.7563H42.7507H42.7451H42.7396H42.734H42.7284H42.7228H42.7172H42.7116H42.706H42.7004H42.6949H42.6893H42.6837H42.6781H42.6725H42.6669H42.6613H42.6558H42.6502H42.6446H42.639H42.6334H42.6278H42.6222H42.6166H42.611H42.6055H42.5999H42.5943H42.5887H42.5831H42.5775H42.5719H42.5663H42.5608H42.5552H42.5496H42.544H42.5384H42.5328H42.5272H42.5216H42.5161H42.5105H42.5049H42.4993H42.4937H42.4881H42.4825H42.4769H42.4714H42.4658H42.4602H42.4546H42.449H42.4434H42.4378H42.4322H42.4266H42.4211H42.4155H42.4099H42.4043H42.3987H42.3931H42.3875H42.3819H42.3764H42.3708H42.3652H42.3596H42.354H42.3484H42.3428H42.3372H42.3316H42.326H42.3205H42.3149H42.3093H42.3037H42.2981H42.2925H42.2869H42.2813H42.2757H42.2702H42.2646H42.259H42.2534H42.2478H42.2422H42.2366H42.231H42.2254H42.2199H42.2143H42.2087H42.2031H42.1975H42.1919H42.1863H42.1807H42.1751H42.1696H42.164H42.1584H42.1528H42.1472H42.1416H42.136H42.1304H42.1248H42.1192H42.1137H42.1081H42.1025H42.0969H42.0913H42.0857H42.0801H42.0745H42.0689H42.0634H42.0578H42.0522H42.0466H42.041H42.0354H42.0298H42.0242H42.0186H42.013H42.0075H42.0019H41.9963H41.9907H41.9851H41.9795H41.9739H41.9683H41.9627H41.9571H41.9516H41.946H41.9404H41.9348H41.9292H41.9236H41.918H41.9124H41.9068H41.9012H41.8957H41.8901H41.8845H41.8789H41.8733H41.8677H41.8621H41.8565H41.8509H41.8453H41.8398H41.8342H41.8286H41.823H41.8174H41.8118H41.8062H41.8006H41.795H41.7894H41.7839H41.7783H41.7727H41.7671H41.7615H41.7559H41.7503H41.7447H41.7391H41.7335H41.728H41.7224H41.7168H41.7112H41.7056H41.7H41.6944H41.6888H41.6832H41.6776H41.6721H41.6665H41.6609H41.6553H41.6497H41.6441H41.6385H41.6329H41.6273H41.6217H41.6162H41.6106H41.605H41.5994H41.5938H41.5882H41.5826H41.577H41.5714H41.5658H41.5603H41.5547H41.5491H41.5435H41.5379H41.5323H41.5267H41.5211H41.5155H41.51H41.5044H41.4988H41.4932H41.4876H41.482H41.4764H41.4708H41.4652H41.4596H41.4541H41.4485H41.4429H41.4373H41.4317H41.4261H41.4205H41.4149H41.4093H41.4038H41.3982H41.3926H41.387H41.3814H41.3758H41.3702H41.3646H41.359H41.3534H41.3479H41.3423H41.3367H41.3311H41.3255H41.3199H41.3143H41.3087H41.3031H41.2976H41.292H41.2864H41.2808H41.2752H41.2696H41.264H41.2584H41.2528H41.2473H41.2417H41.2361H41.2305H41.2249H41.2193H41.2137H41.2081H41.2025H41.197H41.1914H41.1858H41.1802H41.1746H41.169H41.1634H41.1578H41.1523H41.1467H41.1411H41.1355H41.1299H41.1243H41.1187H41.1131H41.1075H41.102H41.0964H41.0908H41.0852H41.0796H41.074H41.0684H41.0628H41.0573H41.0517H41.0461H41.0405H41.0349H41.0293H41.0237H41.0181H41.0126H41.007H41.0014H40.9958H40.9902H40.9846H40.979H40.9734H40.9679H40.9623H40.9567H40.9511H40.9455H40.9399H40.9343H40.9287H40.9232H40.9176H40.912H40.9064H40.9008H40.8952H40.8896H40.884H40.8785H40.8729H40.8673H40.8617H40.8561H40.8505H40.8449H40.8394H40.8338H40.8282H40.8226H40.817H40.8114H40.8058H40.8003H40.7947H40.7891H40.7835H40.7779H40.7723H40.7667H40.7612H40.7556H40.75H40.7444H40.7388H40.7332H40.7276H40.7221H40.7165H40.7109H40.7053H40.6997H40.6941H40.6885H40.683H40.6774H40.6718H40.6662H40.6606H40.655H40.6494H40.6439H40.6383H40.6327H40.6271H40.6215H40.6159H40.6104H40.6048H40.5992H40.5936H40.588H40.5824H40.5769H40.5713H40.5657H40.5601H40.5545H40.5489H40.5433H40.5378H40.5339C40.4816 0.536512 40.3603 0.618824 40.1961 0.644202C37.7623 1.04247 35.769 2.20521 34.1376 4.05862L49.3383 3.91454ZM49.3383 3.91454C51.4616 6.25515 54.1004 7.07142 57.1885 6.4659M49.3383 3.91454L49.7086 3.57859C51.7094 5.78416 54.1689 6.54847 57.0923 5.97524M57.0923 5.97524L57.1884 6.46593C57.1884 6.46592 57.1885 6.46591 57.1885 6.4659M57.0923 5.97524C63.4661 4.72778 69.0292 8.73765 69.8344 15.1606L57.0923 5.97524ZM57.1885 6.4659C63.2798 5.27383 68.5693 9.08905 69.3383 15.2228L69.3383 15.2228C69.7387 18.4113 71.3611 20.6964 74.3004 22.0564M57.1885 6.4659L74.3004 22.0564M74.3004 22.0564C79.8575 24.6318 81.9017 30.8846 78.927 36.2193C78.1479 37.6162 77.7415 39.0157 77.7363 40.4317C77.7312 41.8479 78.1277 43.2493 78.9077 44.6495C81.8917 50.0076 79.8917 56.205 74.3321 58.8336L74.332 58.8336C72.1533 59.8643 70.5628 61.4207 69.7448 63.7494M74.3004 22.0564L21.5832 103.934C22.7248 104.232 23.784 104.153 24.7275 103.737C25.6748 103.32 26.5401 102.548 27.2596 101.403C29.9565 97.1112 32.65 92.8183 35.3438 88.5248C36.8269 86.1611 38.3101 83.7971 39.7941 81.433L39.7947 81.4321C40.7405 79.9325 42.8764 79.9264 43.8212 81.4333M69.7448 63.7494C69.7449 63.7492 69.745 63.749 69.745 63.7488L70.2166 63.9151L69.7448 63.7494ZM69.7448 63.7494C69.6095 64.1333 69.5507 64.5096 69.597 64.8946C69.6431 65.2787 69.7894 65.6362 70.0121 65.989L70.0125 65.9896C72.2282 69.4898 74.4286 72.9936 76.6295 76.4981C78.4621 79.4162 80.2949 82.3348 82.1372 85.2521M82.1372 85.2521C83.1253 86.8191 83.4452 88.3743 82.7735 90.0391M82.1372 85.2521L82.5601 84.9854L82.1374 85.2523C82.1373 85.2523 82.1372 85.2522 82.1372 85.2521ZM82.7735 90.0391C82.0655 91.7915 80.758 92.8115 78.8791 93.0864L78.8789 93.0864C76.4247 93.4463 73.9671 93.7869 71.5078 94.0838M82.7735 90.0391L83.2371 90.2263L82.7734 90.0392C82.7734 90.0392 82.7735 90.0391 82.7735 90.0391ZM71.5078 94.0838C70.4181 94.2146 69.5814 94.6919 68.9754 95.6293M71.5078 94.0838C71.5079 94.0837 71.5081 94.0837 71.5082 94.0837L71.5678 94.5802L71.5078 94.0838ZM68.9754 95.6293C67.6993 97.598 66.4066 99.5561 65.1102 101.513M68.9754 95.6293L69.3949 95.9013L68.975 95.6299C68.9751 95.6297 68.9753 95.6295 68.9754 95.6293ZM65.1102 101.513C63.9124 103.321 62.2805 104.163 60.7064 104.143C59.1323 104.124 57.5179 103.242 56.358 101.4C53.6289 97.066 50.9068 92.7265 48.1847 88.3869C46.7306 86.0688 45.2765 83.7507 43.8212 81.4333M65.1102 101.513L65.527 101.789L65.1102 101.513C65.1102 101.513 65.1102 101.513 65.1102 101.513ZM43.8212 81.4333L43.3976 81.6989M43.8212 81.4333C43.8212 81.4332 43.8211 81.4331 43.821 81.433L43.3976 81.6989M43.3976 81.6989C44.8525 84.0157 46.3064 86.3335 47.7604 88.6514C50.4828 92.9915 53.2054 97.3318 55.935 101.666L27.6829 101.669C30.3796 97.3777 33.0729 93.0851 35.7664 88.7921C37.2498 86.4278 38.7333 84.0633 40.2176 81.6989C40.9682 80.5087 42.6497 80.506 43.3976 81.6989ZM18.6753 101.766C19.3959 102.861 20.3335 103.607 21.5827 103.934L18.6753 101.766ZM18.6753 101.766C18.2786 101.162 17.8807 100.561 17.4833 99.9598C16.567 98.5745 15.6531 97.193 14.7618 95.7961L14.7616 95.7958C14.107 94.7721 13.2331 94.2051 12.0044 94.0617L12.004 94.0616C9.86159 93.8133 7.72564 93.507 5.58028 93.1994C5.39943 93.1735 5.21852 93.1476 5.03753 93.1216M18.6753 101.766L34.1372 4.05905C33.5011 4.78338 32.7435 5.34267 31.9086 5.78606C29.8717 6.87223 27.7732 6.73452 25.7194 6.36638C20.3406 5.40382 14.9067 9.42089 14.3242 14.8103L14.3242 14.8105C14.1367 16.5378 13.6266 18.0171 12.7438 19.2547C11.8607 20.4926 10.6255 21.4594 9.0329 22.1932C3.82992 24.5908 1.75923 30.9461 4.54891 35.9463L4.54898 35.9464C5.38728 37.45 5.83653 38.9385 5.84641 40.4432C5.8563 41.9495 5.42561 43.4365 4.55871 44.935L4.55851 44.9353C3.29486 47.1157 2.99724 49.4908 3.6016 51.9658M5.03753 93.1216C5.03756 93.1216 5.0376 93.1217 5.03763 93.1217L4.96666 93.6166L5.03753 93.1216ZM5.03753 93.1216C2.99619 92.8289 1.57473 91.7294 0.918264 90.3154C0.261824 88.9014 0.337853 87.103 1.43544 85.3458L1.01137 85.0809M1.01137 85.0809L1.43544 85.3458C5.43698 78.9395 9.44595 72.5399 13.4983 66.1707L13.4987 66.1702C13.7813 65.7248 13.9512 65.2871 13.9903 64.8219C14.0293 64.3583 13.9346 63.91 13.7553 63.4498L13.7552 63.4494C12.8832 61.2155 11.2858 59.7647 9.18349 58.7935L9.18338 58.7934C6.22721 57.4286 4.3771 55.1331 3.6016 51.9658M1.01137 85.0809C5.01306 78.6744 9.02293 72.2733 13.0765 65.9023M1.01137 85.0809L13.0765 65.9023M3.6016 51.9658C3.60162 51.9659 3.60165 51.966 3.60167 51.9661L3.11595 52.0847M3.6016 51.9658L3.11595 52.0847M3.11595 52.0847C3.92666 55.3958 5.87563 57.817 8.9738 59.2474M3.11595 52.0847C2.48266 49.4916 2.79384 46.983 4.12592 44.6846C5.78555 41.8157 5.7255 39.0833 4.11227 36.1899L8.9738 59.2474M8.9738 59.2474C10.9828 60.1755 12.4732 61.5403 13.2894 63.6312C13.6115 64.4583 13.5787 65.1107 13.0765 65.9023M8.9738 59.2474L13.0765 65.9023M24.2776 8.24282L24.3152 8.24827C24.4891 8.27345 24.6675 8.29775 24.8483 8.32238C25.275 8.38051 25.7157 8.44055 26.1455 8.51869L26.1464 8.51886C29.9864 9.22464 33.1882 8.14517 35.8408 5.28065C37.9435 3.00771 40.556 2.12587 43.612 2.78679L24.2776 8.24282ZM24.2776 8.24282L24.2395 8.24312M24.2776 8.24282L24.2395 8.24312M24.2395 8.24312C20.2537 8.27508 16.8533 11.1747 16.3743 15.1773C15.8756 19.324 13.8444 22.2245 10.0441 24.0107L10.0439 24.0108M24.2395 8.24312L10.0439 24.0108M10.0439 24.0108C5.67318 26.0669 4.12531 30.8896 6.45318 35.1128C8.43699 38.7136 8.44188 42.1891 6.456 45.7888L6.45599 45.7889M10.0439 24.0108L6.45599 45.7889M6.45599 45.7889C4.12831 50.0088 5.6617 54.8259 10.0377 56.8934C13.8345 58.6883 15.8706 61.5738 16.3771 65.7225C16.9315 70.2799 21.1289 73.279 25.6345 72.4651L25.5456 71.9731M6.45599 45.7889L25.5456 71.9731M25.5456 71.9731L25.6345 72.4651C27.2019 72.1818 28.7084 72.0288 30.2124 72.3245L30.3089 71.8339L30.2124 72.3245C32.5823 72.7902 34.4145 74.1631 36.1345 75.918L36.1345 75.9181C39.3328 79.1803 44.4244 79.2231 47.5158 75.8687C48.98 74.2803 50.5603 73.2252 52.2828 72.666C54.0054 72.1068 55.9007 72.0336 58.0098 72.4552L58.0098 72.4552C62.0903 73.2701 65.9798 70.7516 67.0419 66.7546C67.042 66.7544 67.042 66.7542 67.0421 66.754L66.5588 66.6257M25.5456 71.9731L77.1101 45.653M66.5588 66.6257C66.68 66.1718 66.7465 65.7031 66.813 65.2341C66.8709 64.826 66.9289 64.4177 67.0229 64.0188M66.5588 66.6257C65.5625 70.3762 61.9211 72.7265 58.1078 71.9649C53.7512 71.0941 50.1726 72.2488 47.1482 75.5298L66.5588 66.6257ZM67.0229 64.0188L67.5095 64.1336C67.5095 64.1336 67.5095 64.1336 67.5095 64.1335C68.2924 60.8144 70.2352 58.475 73.3425 57.0312L73.3426 57.0312C76.963 55.348 78.7574 51.9582 78.0648 48.1812L78.0648 48.181C77.8968 47.2672 77.5507 46.4311 77.1101 45.653M67.0229 64.0188C67.8418 60.5467 69.889 58.0845 73.1319 56.5778M67.0229 64.0188L73.1319 56.5778M77.1101 45.653C77.1102 45.6532 77.1103 45.6533 77.1104 45.6535L76.675 45.8993L77.1101 45.653ZM77.1101 45.653C75.1532 42.1856 75.1718 38.764 77.094 35.2652C79.4462 30.9857 77.9759 26.0617 73.6296 24.0373L73.6295 24.0373C69.7911 22.2504 67.7314 19.3391 67.2327 15.1425L67.2327 15.1424C66.6989 10.6586 62.4326 7.56213 58.0317 8.44114C53.8864 9.26914 50.4394 8.26198 47.6131 5.11178L47.6131 5.1117C46.5388 3.91486 45.1875 3.12597 43.6125 2.7869L77.1101 45.653ZM73.1319 56.5778C76.5548 54.9864 78.2227 51.8145 77.573 48.2714L73.1319 56.5778ZM68.377 69.2116C65.5949 74.0352 60.96 75.2522 57.2961 74.4624C54.0606 73.7643 51.3715 74.7434 49.1938 77.1454C48.4133 78.005 47.5508 78.7303 46.5421 79.198L46.5415 79.1983C46.1838 79.3646 45.7876 79.6113 45.7112 80.0685C45.6751 80.2846 45.7246 80.4822 45.788 80.6415C45.851 80.7998 45.9438 80.959 46.0405 81.1118C48.6859 85.2975 51.3182 89.4918 53.951 93.6871C55.3493 95.9152 56.7478 98.1436 58.1485 100.371C58.8189 101.438 59.73 102.071 60.7388 102.074C61.7449 102.078 62.6692 101.454 63.3668 100.401L68.377 69.2116ZM68.377 69.2116L68.0154 68.6834H68.9637H68.9664H69.8101L69.5519 69.1551C69.5606 69.1676 69.5692 69.18 69.5778 69.1923C69.7231 69.4012 69.8514 69.5858 69.9666 69.7704C73.403 75.2403 76.8367 80.713 80.2677 86.1883M68.377 69.2116L80.2677 86.1883M80.2677 86.1883C80.9999 87.3561 81.2708 88.4965 80.8384 89.4438C80.4054 90.3924 79.3665 90.9309 78.0011 91.1331L78.001 91.1331C75.7426 91.4671 73.4774 91.7543 71.2133 92.0302L71.2132 92.0302C69.5459 92.2329 68.2605 92.9549 67.3513 94.346L67.3512 94.3461C66.0299 96.3664 64.7027 98.3872 63.3671 100.4L80.2677 86.1883ZM15.1349 69.0183L14.8936 68.6344L14.488 68.8372C14.4714 68.8454 14.4656 68.8476 14.4533 68.8522C14.4416 68.8567 14.4239 68.8633 14.3851 68.8796C14.358 68.8911 14.3087 68.9127 14.2571 68.9465C14.204 68.9812 14.1326 69.0388 14.0754 69.13C13.2338 70.468 12.391 71.8056 11.5481 73.1435C8.67424 77.7048 5.79876 82.2688 2.9611 86.8567C1.86429 88.6277 2.94467 90.6956 4.94451 91.0175L4.94503 91.0176C5.10587 91.0433 5.26697 91.0692 5.42833 91.0951C7.27975 91.3925 9.16472 91.6953 11.0585 91.8225C12.4233 91.9142 13.5835 92.2297 14.5616 92.8078C15.5367 93.384 16.3586 94.2376 17.025 95.449L17.0252 95.4494C17.7485 96.7611 18.608 98.0102 19.4502 99.2342C19.7492 99.6689 20.0461 100.1 20.334 100.53C20.9907 101.512 21.9009 102.077 22.8731 102.076C23.8484 102.074 24.7477 101.502 25.3787 100.5C27.5331 97.0897 29.6818 93.6678 31.8301 90.2464C33.7722 87.1534 35.7141 84.0609 37.6596 80.9775L37.6597 80.9775C37.7424 80.8463 37.8216 80.7056 37.874 80.561C37.9274 80.4141 37.9641 80.2333 37.9251 80.037C37.8437 79.6276 37.4951 79.4078 37.1995 79.2679C36.0922 78.7436 35.1474 77.9661 34.309 77.0305C32.2015 74.6771 29.5824 73.83 26.4828 74.4274L26.4826 74.4275C24.3051 74.8482 22.358 74.7143 20.631 74.0523C18.9041 73.3903 17.3633 72.1871 16.0191 70.4155C15.8023 70.1293 15.627 69.835 15.4369 69.5158C15.3422 69.3568 15.2439 69.1917 15.1349 69.0183Z" fill="#2196F3" stroke="#2196F3"/>
<path d="M67.9566 40.4512C67.9566 54.8311 56.2354 66.5796 41.8583 66.6014C27.4347 66.626 15.6535 54.8666 15.6589 40.4485C15.6644 26.0195 27.432 14.2765 41.861 14.3038C56.2463 14.3311 67.9566 26.0632 67.9593 40.4512H67.9566ZM18.7216 40.4212C18.7053 53.1251 29.0534 63.5142 41.7491 63.5387C54.4611 63.5633 64.8557 53.2288 64.8912 40.5359C64.9267 27.7747 54.5621 17.3746 41.8119 17.3719C29.1025 17.3719 18.738 27.7173 18.7216 40.4239V40.4212Z" fill="#2196F3"/>
<path d="M27.6967 31.3368C27.713 27.5371 30.0715 24.5454 33.3962 24.024C35.2688 23.7319 36.8956 24.3352 38.2741 25.5854C41.3068 28.3396 41.5388 33.4495 38.7573 36.4631C37.1058 38.2537 35.064 39.0371 32.6729 38.3656C30.0824 37.6368 28.6166 35.7588 27.926 33.2257C27.7458 32.5678 27.6612 31.8909 27.6967 31.3368ZM37.6545 31.3559C37.5999 30.3514 37.417 29.4669 36.9093 28.6671C35.5472 26.5189 32.954 26.467 31.5428 28.5716C30.7839 29.7017 30.5929 30.9655 30.8494 32.2785C31.2234 34.2084 32.6647 35.5623 34.2397 35.5323C35.8611 35.5022 37.245 34.0664 37.5589 32.0874C37.6026 31.8199 37.6299 31.5497 37.6572 31.3559H37.6545Z" fill="#2196F3"/>
<path d="M55.9297 49.3825C55.886 51.7246 55.239 53.5098 53.8415 54.9865C51.2237 57.7544 47.0228 57.5851 44.6343 54.5716C42.7454 52.1886 42.4233 49.4999 43.4742 46.6801C44.5033 43.9177 47.091 42.1653 49.7415 42.3209C52.493 42.4846 54.9279 44.6411 55.6676 47.5837C55.8423 48.277 55.9597 48.984 55.9297 49.3825ZM52.8506 49.822C52.856 47.3325 51.3629 45.4299 49.4904 45.3781C47.656 45.3262 46.1138 47.0923 45.9718 49.4071C45.9718 49.4398 45.9691 49.4753 45.9664 49.5081C45.8899 51.7136 47.3012 53.6544 49.141 53.8783C50.817 54.0803 52.463 52.5516 52.8015 50.4662C52.8451 50.1987 52.8424 49.9257 52.8506 49.8193V49.822Z" fill="#2196F3"/>
<path d="M36.355 55.1283C35.2167 55.1283 34.5452 54.031 35.0229 52.849C35.9018 50.6735 36.8217 48.5171 37.728 46.3552C40.4604 39.8367 43.1982 33.3183 45.9306 26.7999C46.0098 26.6115 46.0835 26.4204 46.1736 26.2375C46.6294 25.3176 47.4429 24.9792 48.2672 25.3586C49.0261 25.708 49.3427 26.5405 48.9797 27.4304C48.0407 29.7261 47.0689 32.0108 46.1108 34.2982C43.3893 40.7839 40.6624 47.2696 37.9518 53.7608C37.6406 54.506 37.2257 55.0628 36.3577 55.1283H36.355Z" fill="#2196F3"/>
</svg>
