<svg width="108" height="95" viewBox="0 0 108 95" fill="none" xmlns="http://www.w3.org/2000/svg">
<path d="M94.5763 33.5322C95.7494 35.1792 96.7722 36.6441 97.6622 38.1986C110.399 60.4557 97.0583 89.1214 71.8309 93.6925C54.2894 96.8708 37.1234 87.5987 30.2784 71.2129C29.975 70.4877 29.6168 70.2132 28.8569 70.2768C28.1403 70.3374 27.4121 70.3259 26.6956 70.2681C25.6583 70.1843 25.0226 69.4562 25.0486 68.4882C25.0746 67.5232 25.7507 66.8904 26.8112 66.8326C28.6748 66.7315 28.6459 66.7372 28.2616 64.9025C26.0801 54.5237 27.8427 44.8674 33.6475 35.9824C34.1358 35.2341 34.2282 34.7689 33.477 34.2199C33.1043 33.9483 32.8009 33.5727 32.4773 33.2346C30.9286 31.6281 30.9286 29.6691 32.5033 28.0568C33.737 26.7941 34.9882 25.5459 36.2508 24.3093C37.9122 22.6825 39.8337 22.6999 41.5038 24.3208C42.0701 24.8698 42.5844 25.7193 43.2432 25.858C43.9309 26.0053 44.5694 25.1327 45.2398 24.7282C49.126 22.3762 53.2723 20.6946 57.748 19.874C58.3519 19.7642 58.7477 19.562 58.6206 18.8454C58.5715 18.5651 58.5859 18.2675 58.6177 17.9815C58.7333 16.9789 58.6581 16.3056 57.3435 16.0774C55.9305 15.8346 55.0262 14.3206 54.9684 12.6996C54.9308 11.6566 54.9279 10.6077 54.9684 9.56465C55.0522 7.37737 56.5258 5.94422 58.7015 5.91533C60.1057 5.8951 61.5129 5.89222 62.9171 5.92112C63.4892 5.93267 63.7782 5.84021 63.914 5.16409C64.5843 1.80661 66.8091 0.00939056 70.2273 0.00650115C80.4269 -0.00216705 90.6294 -0.00216705 100.829 0.00650115C104.802 0.00939056 107.269 2.5174 107.272 6.51633C107.278 13.3642 107.278 20.2121 107.272 27.0629C107.269 31.0213 104.75 33.5207 100.771 33.5351C98.7919 33.5409 96.8098 33.5351 94.5792 33.5351L94.5763 33.5322ZM71.7587 37.3925C71.7587 36.491 71.6864 35.5837 71.7789 34.6909C71.8771 33.7114 71.5246 33.4456 70.5827 33.5149C68.6641 33.6536 66.76 33.2462 65.6187 31.6744C64.671 30.3683 63.6019 30.4319 62.3508 30.5475C62.0272 30.5764 61.7094 30.6428 61.3886 30.6862C46.7336 32.6856 36.534 46.4652 38.9669 60.9902C41.4691 75.94 55.9392 85.8246 70.7156 82.3544C81.2099 79.8898 88.0578 73.1604 90.4993 62.669C92.9409 52.1718 89.6296 43.2897 81.4497 36.2425C80.8516 35.7282 80.4818 35.6646 79.8952 36.3089C78.2714 38.0946 76.5609 39.8022 74.8966 41.5503C74.3158 42.16 73.6339 42.4143 72.848 42.1167C72.0476 41.8133 71.7385 41.1574 71.7558 40.3108C71.776 39.3371 71.7616 38.3633 71.7587 37.3925ZM83.9346 33.5322C83.9086 33.6074 83.8826 33.6825 83.8566 33.7547C83.9664 33.8443 84.082 33.931 84.1889 34.0263C92.4844 41.4376 95.9256 50.6577 94.2845 61.6634C91.9614 77.2518 76.5811 88.5522 60.9581 86.2494C44.5723 83.8338 33.5059 69.3926 35.4331 52.949C36.9645 39.8947 47.6669 29.0161 60.6692 27.2651C61.692 27.1264 63.1454 27.4818 63.6279 26.7826C64.1393 26.0458 63.7348 24.6993 63.8273 23.6274C63.9024 22.7605 63.5643 22.6219 62.7813 22.6739C61.3395 22.7721 59.9064 22.9339 58.4963 23.2113C40.1371 26.8433 28.2241 44.1334 31.3331 62.6169C34.6472 82.3284 54.8384 95.0909 74.0615 89.63C87.714 85.7524 97.4223 74.3219 98.8699 60.1725C99.8755 50.3514 97.0121 41.6746 90.56 34.1939C90.2855 33.8761 90.063 33.5149 89.5285 33.5236C87.6648 33.5496 85.8012 33.5351 83.9346 33.5351V33.5322ZM75.2202 35.497C76.7747 34.1101 78.4823 32.6625 80.0917 31.1109C80.817 30.4117 81.5249 30.0476 82.5535 30.0563C88.6443 30.0938 94.7352 30.0794 100.826 30.0707C102.739 30.0707 103.799 29.0912 103.802 27.2854C103.817 20.2583 103.817 13.2284 103.802 6.20138C103.799 4.51975 102.779 3.47667 101.118 3.47378C90.7392 3.45934 80.3575 3.45934 69.9788 3.47378C68.3665 3.47378 67.2946 4.49952 67.2888 6.09158C67.2628 13.1908 67.2628 20.2901 67.2888 27.3923C67.2946 28.9959 68.3463 30.0101 69.9441 30.065C70.915 30.0996 71.8887 30.0707 72.8624 30.0736C74.6799 30.0794 75.2144 30.6255 75.2231 32.4834C75.226 33.6218 75.2231 34.7631 75.2231 35.497H75.2202ZM61.0621 12.8499C62.9768 12.8499 63.8928 11.9494 63.8099 10.1483C63.8099 10.1136 63.8042 10.0761 63.8099 10.0414C63.8706 9.51553 63.6163 9.35661 63.1194 9.36528C61.7902 9.3855 60.4611 9.39128 59.132 9.36528C58.557 9.35372 58.4241 9.6022 58.3981 10.1367C58.271 12.8499 58.2565 12.8499 60.9552 12.8499C60.9899 12.8499 61.0275 12.8499 61.0621 12.8499ZM36.2711 32.2898C36.5022 32.1193 36.5976 32.0731 36.664 31.9951C37.7533 30.7497 38.9149 29.5738 40.1717 28.4931C40.4376 28.2649 40.3798 28.0915 40.1602 27.8835C39.9001 27.635 39.6256 27.398 39.4032 27.1149C39.0275 26.6352 38.7386 26.6468 38.3139 27.1033C37.3835 28.1031 36.3809 29.0334 35.4389 30.0216C35.2338 30.2354 34.679 30.3799 35.0142 30.8364C35.3927 31.3536 35.855 31.813 36.2711 32.2869V32.2898ZM62.0676 17.6463C62.0676 17.8399 62.0445 17.9526 62.0705 18.0537C62.1977 18.5016 61.6631 19.2528 62.7495 19.2557C63.7059 19.2557 63.9313 18.8454 63.8157 18.019C63.7868 17.8081 63.8128 17.5885 63.8099 17.3718C63.8042 16.3201 63.5615 16.112 62.5415 16.3201C61.588 16.5137 62.3103 17.2909 62.0676 17.6492V17.6463Z" fill="#2196F3"/>
<path d="M7.08521 46.679C5.82832 46.679 4.57143 46.7021 3.31454 46.6732C2.13566 46.6443 1.36419 45.9509 1.34108 44.9685C1.31796 43.9341 2.09521 43.2377 3.35788 43.2291C5.90633 43.2117 8.45767 43.2117 11.0061 43.2291C12.211 43.2377 12.9507 43.8994 12.968 44.9049C12.9854 45.9451 12.2139 46.6501 10.9628 46.6761C9.67122 46.7021 8.37677 46.6819 7.08521 46.6819V46.679Z" fill="#2196F3"/>
<path d="M21.8904 46.679C20.6653 46.679 19.4402 46.6906 18.2151 46.6761C16.8744 46.6588 16.0625 45.9711 16.0799 44.9049C16.1001 43.8647 16.8629 43.2319 18.166 43.2262C20.6538 43.2117 23.1387 43.2117 25.6264 43.2262C26.9642 43.2348 27.6779 43.8387 27.6895 44.9136C27.701 46.0116 26.9353 46.6588 25.5658 46.6761C24.3407 46.6935 23.1156 46.679 21.8904 46.679Z" fill="#2196F3"/>
<path d="M14.4996 54.5264C13.2052 54.5264 11.9136 54.5408 10.6192 54.5235C9.43162 54.5061 8.67749 53.8358 8.66304 52.8274C8.6486 51.8248 9.4114 51.0851 10.5729 51.0764C13.1965 51.0533 15.8201 51.0533 18.4408 51.0764C19.533 51.088 20.2813 51.8219 20.2958 52.7783C20.3102 53.778 19.5388 54.5004 18.3801 54.5206C17.0856 54.5408 15.7941 54.5264 14.4996 54.5264Z" fill="#2196F3"/>
<path d="M14.4852 66.8325C15.7797 66.8325 17.0712 66.8181 18.3657 66.8354C19.5388 66.8528 20.3016 67.5491 20.2958 68.5517C20.29 69.537 19.5099 70.2709 18.3484 70.2825C15.7623 70.3056 13.1763 70.3085 10.5874 70.2825C9.42299 70.2709 8.65441 69.5312 8.66019 68.5373C8.66597 67.526 9.41432 66.8528 10.6019 66.8354C11.8963 66.8181 13.1879 66.8325 14.4823 66.8325H14.4852Z" fill="#2196F3"/>
<path d="M20.0154 62.3973C18.7528 62.3973 17.493 62.4205 16.2303 62.3916C15.0254 62.3627 14.28 61.6895 14.2713 60.6897C14.2626 59.69 15.011 58.9676 16.2014 58.9532C18.7961 58.9243 21.3908 58.9214 23.9884 58.9532C25.1644 58.9676 25.9301 59.7247 25.904 60.7128C25.878 61.675 25.1499 62.354 24.0173 62.3858C22.6853 62.4234 21.3503 62.3945 20.0154 62.3945V62.3973Z" fill="#2196F3"/>
<path d="M5.5395 62.3944C4.31729 62.3944 3.09218 62.4204 1.87285 62.3858C0.743097 62.3511 0.0236358 61.6779 0.000520615 60.7128C-0.0225946 59.716 0.725761 58.9705 1.89886 58.9532C4.34329 58.9185 6.79061 58.9214 9.23505 58.9532C10.4226 58.9676 11.1796 59.6957 11.1709 60.6897C11.1623 61.6865 10.4139 62.3627 9.20904 62.3916C7.98683 62.4204 6.76461 62.3973 5.54239 62.3973L5.5395 62.3944Z" fill="#2196F3"/>
<path d="M66.6561 47.2395C66.6561 48.3548 66.6821 49.473 66.6474 50.5883C66.6301 51.1546 66.7601 51.4927 67.338 51.7383C68.54 52.2497 69.427 53.1541 69.9529 54.3474C70.1841 54.8733 70.4903 55.0062 71.022 55.0033C73.2902 54.9802 75.5584 54.9918 77.8265 54.9947C78.6934 54.9947 79.381 55.3183 79.7018 56.1706C79.9531 56.841 79.7827 57.442 79.2915 57.9563C78.8841 58.3839 78.3611 58.4562 77.8034 58.4533C75.5699 58.4475 73.3393 58.4706 71.1058 58.4388C70.5308 58.4302 70.2245 58.5862 69.9471 59.1323C68.7798 61.438 66.4394 62.6516 64.0817 62.2528C61.7586 61.8599 59.866 60.0367 59.4788 57.8176C59.0281 55.2345 60.1463 52.9663 62.5503 51.7354C63.0472 51.4812 63.2119 51.2067 63.2062 50.6721C63.1802 48.4039 63.1744 46.1358 63.2062 43.8676C63.2264 42.4431 64.2261 41.6138 65.4339 41.975C66.2603 42.2206 66.6417 42.8274 66.6532 43.6769C66.6532 43.7491 66.6561 43.8213 66.6561 43.8936C66.6561 45.0089 66.6561 46.1271 66.6561 47.2424V47.2395ZM64.8936 54.6537C63.7378 54.6768 62.8594 55.5783 62.8623 56.7399C62.8623 57.9274 63.8245 58.8722 65.0005 58.8405C66.1302 58.8116 67.0404 57.8754 67.0433 56.7428C67.0433 55.561 66.0869 54.6277 64.8936 54.6537Z" fill="#2196F3"/>
<path d="M49.181 39.2156C49.6231 39.2647 50.0305 39.4005 50.3512 39.7126C50.9435 40.2876 51.5503 40.8539 52.0993 41.4722C52.7783 42.2379 52.7349 43.2376 52.0588 43.8935C51.4116 44.5234 50.4523 44.5725 49.7184 43.9282C49.0452 43.3359 48.4153 42.6886 47.823 42.0154C47.3578 41.4866 47.3029 40.8365 47.6178 40.198C47.9328 39.5594 48.4875 39.2705 49.181 39.2156Z" fill="#2196F3"/>
<path d="M82.4293 72.383C82.4524 73.218 82.1202 73.7468 81.4874 74.0588C80.8575 74.3709 80.1958 74.3275 79.6699 73.8652C78.9707 73.2498 78.3004 72.591 77.6965 71.8831C77.1475 71.2416 77.1475 70.476 77.656 69.7969C78.1646 69.1179 78.9216 68.8434 79.6584 69.2537C80.765 69.8692 81.6001 70.8256 82.3109 71.8686C82.4207 72.0333 82.4062 72.2818 82.4264 72.383H82.4293Z" fill="#2196F3"/>
<path d="M66.6331 35.6357C66.6331 36.1038 66.6793 36.5747 66.6244 37.0342C66.5146 37.9357 65.9686 38.4615 65.0613 38.5222C64.154 38.5829 63.5039 38.1437 63.3132 37.2595C63.082 36.202 63.0994 35.1069 63.293 34.0494C63.4634 33.1219 64.1482 32.6191 65.0931 32.7087C66.0263 32.7983 66.5811 33.3733 66.6418 34.3412C66.6678 34.7718 66.6476 35.2023 66.6476 35.6328C66.6447 35.6328 66.6389 35.6328 66.636 35.6328L66.6331 35.6357Z" fill="#2196F3"/>
<path d="M43.7952 58.436C43.3647 58.436 42.9313 58.4649 42.5036 58.4302C41.5357 58.3522 40.978 57.7714 40.9116 56.841C40.8451 55.8933 41.3768 55.1999 42.3014 55.0785C43.2896 54.9485 44.3124 54.9601 45.3064 55.0612C46.2628 55.1594 46.832 55.9742 46.7251 56.9017C46.6153 57.8581 46.0432 58.3753 45.0868 58.4389C44.6562 58.4678 44.2257 58.4447 43.7952 58.4447C43.7952 58.4447 43.7952 58.4418 43.7952 58.4389V58.436Z" fill="#2196F3"/>
<path d="M86.0383 58.4387C85.6078 58.4387 85.1744 58.4647 84.7468 58.4329C83.7759 58.3607 83.2183 57.777 83.1518 56.8495C83.0854 55.9105 83.591 55.2401 84.5301 55.0697C85.5211 54.8905 86.5411 54.9165 87.535 55.0523C88.4914 55.1824 89.078 55.9798 88.9653 56.8929C88.8497 57.8406 88.2921 58.3751 87.3299 58.4358C86.9023 58.4647 86.4688 58.4416 86.0383 58.4416C86.0383 58.4416 86.0383 58.4416 86.0383 58.4387Z" fill="#2196F3"/>
<path d="M66.633 77.8788C66.633 78.344 66.6764 78.8178 66.6244 79.2772C66.5261 80.1325 66.0089 80.6468 65.1594 80.7451C64.2695 80.8462 63.5616 80.4763 63.342 79.5893C63.0646 78.4682 63.082 77.3009 63.3276 76.1769C63.5212 75.287 64.2233 74.8651 65.1046 74.9489C65.98 75.0327 66.5521 75.5586 66.633 76.4803C66.6735 76.9426 66.6388 77.4136 66.6388 77.8788C66.6388 77.8788 66.6388 77.8788 66.6359 77.8788H66.633Z" fill="#2196F3"/>
<path d="M82.4323 41.062C82.4468 41.4463 82.2705 41.8335 81.9585 42.1513C81.3806 42.7408 80.8172 43.3504 80.2017 43.8965C79.4389 44.5726 78.4392 44.5264 77.7862 43.8445C77.1621 43.1915 77.1245 42.2293 77.7717 41.5041C78.3438 40.8598 78.9622 40.253 79.5978 39.6751C80.1526 39.1724 80.8143 39.0712 81.4991 39.418C82.1318 39.7387 82.4497 40.2703 82.4352 41.0591L82.4323 41.062Z" fill="#2196F3"/>
<path d="M52.576 70.814C52.5905 71.2329 52.4691 71.6086 52.1831 71.9033C51.5589 72.5505 50.9493 73.2122 50.2761 73.8045C49.5595 74.4344 48.5713 74.3708 47.9414 73.7381C47.3029 73.0966 47.2422 72.12 47.8778 71.4005C48.4702 70.7273 49.1174 70.1003 49.7849 69.5022C50.3107 69.0312 50.9551 68.9677 51.5994 69.2711C52.2408 69.5744 52.5529 70.1119 52.576 70.8169V70.814Z" fill="#2196F3"/>
<path d="M85.5123 7.3194C89.0749 7.3194 92.6376 7.3194 96.2002 7.3194C97.1364 7.3194 97.8067 7.70368 98.0292 8.6543C98.2257 9.498 97.8905 10.1366 97.1537 10.5526C96.7694 10.7693 96.3302 10.778 95.8939 10.778C94.0216 10.7722 92.1521 10.778 90.2798 10.778C85.3852 10.778 80.4905 10.778 75.5959 10.778C75.2723 10.778 74.9457 10.7953 74.625 10.7549C73.5935 10.6249 72.9665 9.90253 73.0156 8.93747C73.0647 8.02153 73.7033 7.35985 74.7117 7.33962C76.7632 7.29917 78.8147 7.31941 80.8661 7.31652C82.4149 7.31652 83.9607 7.31652 85.5094 7.31652L85.5123 7.3194Z" fill="#2196F3"/>
<path d="M85.5152 18.4727C82.0595 18.4727 78.6066 18.4669 75.1509 18.4785C74.3534 18.4785 73.6397 18.3514 73.215 17.5799C72.6949 16.6293 73.1601 15.4446 74.2061 15.147C74.6135 15.0314 75.0584 15.0228 75.4861 15.0199C82.1808 15.0112 88.8727 15.0141 95.5674 15.0141C95.7465 15.0141 95.9286 15.0083 96.1077 15.017C97.3617 15.0777 98.1361 15.7827 98.0956 16.8171C98.0581 17.8255 97.3242 18.4612 96.0933 18.4669C92.5653 18.4843 89.0403 18.4727 85.5123 18.4727H85.5152Z" fill="#2196F3"/>
<path d="M85.5876 26.2017C82.0597 26.2017 78.5317 26.2133 75.0066 26.196C73.5764 26.1902 72.7413 25.228 73.0852 24.0116C73.3366 23.1274 73.9953 22.7489 74.8737 22.746C81.999 22.7402 89.1271 22.7345 96.2524 22.7518C97.3446 22.7518 98.0872 23.503 98.0958 24.4652C98.1045 25.4678 97.3388 26.1873 96.1686 26.1931C92.6407 26.2075 89.1127 26.1988 85.5876 26.1988V26.2017Z" fill="#2196F3"/>
</svg>
