<svg width="34" height="45" viewBox="0 0 34 45" fill="none" xmlns="http://www.w3.org/2000/svg">
<path fill-rule="evenodd" clip-rule="evenodd" d="M29.5139 16.7046C29.5198 19.3894 28.6492 22.0042 27.032 24.1586L16.8651 37.5882L6.69826 24.1586C5.50788 22.5655 4.71602 20.7153 4.38771 18.76C4.0594 16.8048 4.20402 14.8003 4.80969 12.9112C5.41535 11.0221 6.46479 9.30225 7.87178 7.89297C9.27878 6.4837 11.0032 5.42518 12.9034 4.80438C14.8036 4.18357 16.8254 4.01818 18.8026 4.32179C20.7799 4.6254 22.6562 5.38936 24.2775 6.5509C25.8988 7.71244 27.2189 9.23844 28.1291 11.0035C29.0394 12.7686 29.514 14.7225 29.5139 16.7046ZM33.7302 16.7046C33.7302 20.4358 32.4963 23.8774 30.4134 26.6563L19.4989 41.0687L16.8651 44.5493L14.2285 41.0687L3.31681 26.6563C1.72779 24.5329 0.670037 22.0664 0.230451 19.4593C-0.209135 16.8522 -0.0180066 14.179 0.788133 11.6593C1.59427 9.13964 2.99242 6.84539 4.86768 4.96508C6.74295 3.08477 9.04183 1.67206 11.5754 0.843033C14.109 0.0140028 16.805 -0.207692 19.4419 0.196165C22.0789 0.600022 24.5814 1.6179 26.744 3.16618C28.9065 4.71445 30.6674 6.74893 31.8819 9.10246C33.0964 11.456 33.7299 14.0614 33.7302 16.7046ZM16.8651 22.2735C18.3561 22.2735 19.786 21.6868 20.8403 20.6424C21.8945 19.598 22.4868 18.1816 22.4868 16.7046C22.4868 15.2276 21.8945 13.8111 20.8403 12.7667C19.786 11.7223 18.3561 11.1356 16.8651 11.1356C15.3741 11.1356 13.9442 11.7223 12.89 12.7667C11.8357 13.8111 11.2434 15.2276 11.2434 16.7046C11.2434 18.1816 11.8357 19.598 12.89 20.6424C13.9442 21.6868 15.3741 22.2735 16.8651 22.2735Z" fill="#2196F3"/>
</svg>
