<svg width="56" height="56" viewBox="0 0 56 56" fill="#eeeeee" xmlns="http://www.w3.org/2000/svg">
<path d="M44.8719 55.9995C42.4314 55.9995 39.0032 55.117 33.8696 52.2495C27.6271 48.7494 22.7986 45.5181 16.5899 39.3268C10.6036 33.3455 7.69055 29.4729 3.61346 22.0554C-0.992478 13.6803 -0.207318 9.2902 0.670362 7.41393C1.71558 5.1714 3.25839 3.83014 5.25255 2.49887C6.38522 1.75691 7.58386 1.12088 8.83328 0.598847C8.95831 0.545097 9.07458 0.493846 9.17835 0.447596C9.79723 0.168842 10.7349 -0.252413 11.9227 0.197593C12.7153 0.495096 13.423 1.10385 14.5307 2.19762C16.8024 4.43764 19.9068 9.42645 21.052 11.8765C21.8209 13.5278 22.3298 14.6178 22.331 15.8403C22.331 17.2715 21.6109 18.3753 20.737 19.5666C20.5732 19.7903 20.4106 20.0041 20.2531 20.2116C19.3017 21.4616 19.0929 21.8229 19.2304 22.4679C19.5092 23.7641 21.5884 27.6229 25.0053 31.0317C28.4223 34.4405 32.1706 36.388 33.4721 36.6655C34.1447 36.8093 34.5135 36.5918 35.8038 35.6068C35.9888 35.4655 36.1789 35.3193 36.3777 35.173C37.7104 34.1818 38.7631 33.4805 40.1609 33.4805H40.1684C41.3849 33.4805 42.4264 34.008 44.1517 34.878C46.4022 36.013 51.542 39.0768 53.7962 41.3506C54.8927 42.4556 55.5041 43.1606 55.8029 43.9519C56.253 45.1431 55.8291 46.0769 55.5528 46.7019C55.5066 46.8057 55.4553 46.9194 55.4016 47.0457C54.8753 48.2926 54.2354 49.4885 53.4899 50.6182C52.1609 52.6057 50.8144 54.1445 48.5664 55.1908C47.4121 55.7367 46.1488 56.0133 44.8719 55.9995Z" fill="white"/>
</svg>
